<svg xmlns="http://www.w3.org/2000/svg" version="1.1" xmlns:xlink="http://www.w3.org/1999/xlink" width="512" height="512" x="0" y="0" viewBox="0 0 32 32" style="enable-background:new 0 0 512 512" xml:space="preserve" fill-rule="evenodd" class=""><g><path d="M9.78 6a2.998 2.998 0 0 0-2.826-2H3.06a1 1 0 0 0 0 2h3.893c.468 0 .874.326.976.784l2.18 9.864A2.998 2.998 0 0 0 13.04 19h11.053a3 3 0 0 0 2.858-2.09l2.434-7.652A2.499 2.499 0 0 0 27.002 6zm.466 2 1.816 8.216c.102.458.508.784.977.784h11.053a1 1 0 0 0 .952-.697l2.434-7.652A.502.502 0 0 0 27.002 8z" fill="#000000" opacity="1" data-original="#000000" class=""></path><path d="M9.377 15.001 9.43 15h.603s1.313-2-.007-2H9.43a3.001 3.001 0 0 0-2.952 3.537l.73 4A3.002 3.002 0 0 0 10.16 23h12.376a1 1 0 0 0 0-2H10.16c-.482 0-.896-.346-.984-.821l-.729-4a.997.997 0 0 1 .217-.82.996.996 0 0 1 .713-.358z" fill="#000000" opacity="1" data-original="#000000" class=""></path><path d="M9.562 21.5c-1.793 0-3.25 1.457-3.25 3.25S7.769 28 9.562 28s3.25-1.456 3.25-3.25-1.457-3.25-3.25-3.25zm0 2a1.25 1.25 0 1 1-.002 2.502 1.25 1.25 0 0 1 .002-2.501zM22.5 21c-1.931 0-3.5 1.569-3.5 3.5s1.569 3.5 3.5 3.5 3.5-1.569 3.5-3.5-1.569-3.5-3.5-3.5zm0 2a1.501 1.501 0 0 1 0 3 1.501 1.501 0 0 1 0-3zM16 13.53h5a1 1 0 0 0 0-2.001h-5a1 1 0 0 0 0 2z" fill="#000000" opacity="1" data-original="#000000" class=""></path><path d="M17.473 10v5a1 1 0 0 0 2 0v-5a1 1 0 0 0-2 0z" fill="#000000" opacity="1" data-original="#000000" class=""></path></g></svg>