<svg width="28" height="28" viewBox="0 0 28 28" fill="none" xmlns="http://www.w3.org/2000/svg">
<g clip-path="url(#clip0_18_76)">
<path d="M23.3333 8.46533C23.2568 6.19526 22.3016 4.04364 20.6692 2.46432C19.0367 0.884994 16.8547 0.00143278 14.5833 0L9.91667 0C7.59679 0.00247059 5.37262 0.925136 3.73222 2.56554C2.09181 4.20595 1.16914 6.43011 1.16667 8.75V15.918C1.16966 17.2612 1.44438 18.5899 1.9743 19.8242C2.50421 21.0584 3.27837 22.1727 4.25017 23.1L4.66667 23.4967V24.5C4.66667 25.4283 5.03542 26.3185 5.6918 26.9749C6.34818 27.6313 7.23841 28 8.16667 28H18.6667C19.5949 28 20.4852 27.6313 21.1415 26.9749C21.7979 26.3185 22.1667 25.4283 22.1667 24.5V24.15L23.2867 23.2167C24.399 22.2863 25.2932 21.1228 25.9061 19.8085C26.519 18.4942 26.8355 17.0613 26.8333 15.6112V13.4167C26.8323 12.331 26.4953 11.2723 25.8687 10.3858C25.242 9.49935 24.3564 8.82849 23.3333 8.46533ZM23.3333 15.6112C23.3347 16.5497 23.1298 17.4771 22.733 18.3277C22.3363 19.1783 21.7574 19.9313 21.0373 20.5333C21.0373 20.5333 19.1707 22.1083 19.1135 22.1667H8.06634L6.66634 20.5683C6.03651 19.9682 5.53466 19.2468 5.191 18.4476C4.84734 17.6484 4.66898 16.788 4.66667 15.918V13.7013C5.22875 13.8998 5.82059 14.0008 6.41667 14H12.25C12.7141 14 13.1593 13.8156 13.4874 13.4874C13.8156 13.1592 14 12.7141 14 12.25C14 11.7859 13.8156 11.3408 13.4874 11.0126C13.1593 10.6844 12.7141 10.5 12.25 10.5H6.41667C5.95254 10.5 5.50742 10.3156 5.17923 9.98744C4.85105 9.65925 4.66667 9.21413 4.66667 8.75C4.66822 7.35809 5.22184 6.02363 6.20607 5.03939C7.1903 4.05516 8.52476 3.50154 9.91667 3.5H14.5833C15.9264 3.50186 17.2179 4.01772 18.1927 4.94171C19.1674 5.86571 19.7516 7.12775 19.8252 8.46883C18.8043 8.83329 17.9209 9.50423 17.2959 10.3899C16.6708 11.2755 16.3347 12.3327 16.3333 13.4167V16.9167C16.3333 17.3808 16.5177 17.8259 16.8459 18.1541C17.1741 18.4823 17.6192 18.6667 18.0833 18.6667C18.5475 18.6667 18.9926 18.4823 19.3208 18.1541C19.649 17.8259 19.8333 17.3808 19.8333 16.9167V13.4167C19.8333 12.9525 20.0177 12.5074 20.3459 12.1792C20.6741 11.851 21.1192 11.6667 21.5833 11.6667C22.0475 11.6667 22.4926 11.851 22.8208 12.1792C23.149 12.5074 23.3333 12.9525 23.3333 13.4167V15.6112Z" fill="#FF0000"/>
</g>
<defs>
<clipPath id="clip0_18_76">
<rect width="28" height="28" fill="white"/>
</clipPath>
</defs>
</svg>
