<svg width="27" height="27" viewBox="0 0 27 27" fill="none" xmlns="http://www.w3.org/2000/svg">
<g clip-path="url(#clip0_673_339)">
<path d="M25.4416 24.7084H25.2791L19.0759 9.29474C18.9632 9.01416 18.9676 8.69999 19.0878 8.42374C19.0878 8.42374 21.8991 4.29841 21.9218 4.25507C22.1166 3.86861 22.1995 3.43543 22.1612 3.00436C22.1229 2.5733 21.965 2.1615 21.7052 1.81541C21.1743 1.10366 20.3022 0.758075 19.3565 0.927075L16.0025 1.75907C14.3696 2.04161 12.8364 2.73808 11.5494 3.78198C10.2623 4.82587 9.26443 6.18231 8.65099 7.72174L1.77074 24.7084H1.60824C1.32092 24.7084 1.04537 24.8225 0.842203 25.0257C0.639039 25.2289 0.524902 25.5044 0.524902 25.7917C0.524902 26.0791 0.639039 26.3546 0.842203 26.5578C1.04537 26.7609 1.32092 26.8751 1.60824 26.8751H25.4416C25.7289 26.8751 26.0044 26.7609 26.2076 26.5578C26.4108 26.3546 26.5249 26.0791 26.5249 25.7917C26.5249 25.5044 26.4108 25.2289 26.2076 25.0257C26.0044 24.8225 25.7289 24.7084 25.4416 24.7084ZM10.6606 8.53316C11.6442 6.08591 13.7817 4.35149 16.451 3.87807L19.8039 3.04607C19.8288 3.03957 19.9057 3.02766 19.9675 3.11107C19.983 3.1296 19.9939 3.15151 19.9994 3.17503C20.0048 3.19856 20.0047 3.22304 19.9989 3.24649C19.9989 3.24649 17.1974 7.35666 17.1757 7.40108C16.9673 7.81843 16.8498 8.27523 16.831 8.74134C16.8121 9.20744 16.8923 9.67225 17.0663 10.1051L22.9434 24.7095H4.10857L10.6606 8.53424V8.53316ZM18.9416 20.3231C18.9445 20.4855 18.8987 20.6451 18.8101 20.7812C18.7215 20.9174 18.5941 21.0238 18.4443 21.0868L17.0165 21.6892L16.4467 23.1148C16.3866 23.266 16.2825 23.3957 16.1479 23.4871C16.0132 23.5785 15.8543 23.6273 15.6916 23.6273C15.5289 23.6273 15.3699 23.5785 15.2353 23.4871C15.1007 23.3957 14.9966 23.266 14.9365 23.1148L14.3699 21.6978L12.9529 21.1312C12.8017 21.0712 12.672 20.9671 12.5806 20.8324C12.4893 20.6978 12.4404 20.5389 12.4404 20.3762C12.4404 20.2135 12.4893 20.0545 12.5806 19.9199C12.672 19.7852 12.8017 19.6812 12.9529 19.6211L14.3699 19.0545L14.9365 17.6375C14.9966 17.4863 15.1007 17.3566 15.2353 17.2652C15.3699 17.1739 15.5289 17.125 15.6916 17.125C15.8543 17.125 16.0132 17.1739 16.1479 17.2652C16.2825 17.3566 16.3866 17.4863 16.4467 17.6375L17.01 19.0469L18.4172 19.5799C18.5691 19.6372 18.7003 19.7387 18.7938 19.8714C18.8873 20.0041 18.9388 20.1608 18.9416 20.3231ZM12.3549 15.616L11.8826 14.4352L10.7017 13.9628C10.5767 13.9121 10.4697 13.8251 10.3943 13.7132C10.319 13.6013 10.2787 13.4694 10.2787 13.3345C10.2787 13.1996 10.319 13.0677 10.3943 12.9558C10.4697 12.8438 10.5767 12.7569 10.7017 12.7062L11.8826 12.2338L12.3549 11.053C12.4057 10.928 12.4926 10.8209 12.6045 10.7456C12.7164 10.6702 12.8483 10.63 12.9832 10.63C13.1182 10.63 13.25 10.6702 13.362 10.7456C13.4739 10.8209 13.5608 10.928 13.6116 11.053L14.0807 12.2273L15.2528 12.6715C15.3793 12.7194 15.4885 12.8041 15.5663 12.9147C15.6442 13.0252 15.6872 13.1566 15.6898 13.2918C15.6923 13.427 15.6543 13.5598 15.5807 13.6733C15.5071 13.7867 15.4012 13.8755 15.2767 13.9282L14.0861 14.4297L13.6105 15.6182C13.5597 15.7432 13.4728 15.8502 13.3609 15.9256C13.2489 16.0009 13.1171 16.0412 12.9822 16.0412C12.8472 16.0412 12.7154 16.0009 12.6034 15.9256C12.4915 15.8502 12.4046 15.7432 12.3538 15.6182L12.3549 15.616Z" fill="#009F2C"/>
</g>
<defs>
<clipPath id="clip0_673_339">
<rect width="26" height="26" fill="white" transform="translate(0.524902 0.875)"/>
</clipPath>
</defs>
</svg>
