<svg width="26" height="26" viewBox="0 0 26 26" fill="none" xmlns="http://www.w3.org/2000/svg">
<g clip-path="url(#clip0_673_353)">
<path d="M10.4417 11.3125C10.4415 11.727 10.2767 12.1245 9.9835 12.4176C9.69028 12.7106 9.29266 12.8751 8.87812 12.875C8.46359 12.8749 8.06608 12.7101 7.77305 12.4168C7.48003 12.1236 7.31549 11.726 7.31563 11.3115C7.31576 10.8969 7.48057 10.4994 7.77379 10.2064C8.06701 9.91336 8.46463 9.74882 8.87917 9.74896C9.29371 9.7491 9.69121 9.91391 9.98424 10.2071C10.2773 10.5003 10.4418 10.898 10.4417 11.3125ZM16.1708 9.75C15.7563 9.75014 15.3588 9.91495 15.0658 10.2082C14.7727 10.5014 14.6082 10.899 14.6083 11.3135C14.6085 11.7281 14.7733 12.1256 15.0665 12.4186C15.3597 12.7116 15.7573 12.8762 16.1719 12.876C16.5864 12.8759 16.9839 12.7111 17.2769 12.4179C17.57 12.1247 17.7345 11.727 17.7344 11.3125C17.7342 10.898 17.5694 10.5005 17.2762 10.2074C16.983 9.9144 16.5854 9.74986 16.1708 9.75ZM22.9417 10.7917V24.3333C22.9414 24.6095 22.8316 24.8743 22.6363 25.0696C22.441 25.2649 22.1762 25.3747 21.9 25.375C21.6847 25.3748 21.4747 25.3079 21.299 25.1835C21.1233 25.059 20.9904 24.8832 20.9188 24.6802C20.6438 23.901 19.7031 23.2917 18.776 23.2917C17.849 23.2917 16.9083 23.901 16.6333 24.6802C16.5616 24.8834 16.4286 25.0594 16.2527 25.1839C16.0768 25.3084 15.8666 25.3752 15.651 25.3752C15.4355 25.3752 15.2253 25.3084 15.0494 25.1839C14.8735 25.0594 14.7405 24.8834 14.6687 24.6802C14.3937 23.901 13.4531 23.2917 12.526 23.2917C11.599 23.2917 10.6583 23.901 10.3833 24.6802C10.3116 24.8834 10.1786 25.0594 10.0027 25.1839C9.82676 25.3084 9.61655 25.3752 9.40104 25.3752C9.18553 25.3752 8.97532 25.3084 8.79939 25.1839C8.62346 25.0594 8.49047 24.8834 8.41875 24.6802C8.14375 23.901 7.20312 23.2917 6.27604 23.2917C5.34896 23.2917 4.40833 23.901 4.13333 24.6802C4.05047 24.9108 3.88906 25.1048 3.67742 25.2283C3.46578 25.3517 3.21742 25.3967 2.97593 25.3553C2.73444 25.3139 2.51524 25.1888 2.35678 25.0019C2.19832 24.815 2.11073 24.5783 2.10938 24.3333V10.7917C2.10833 5.04792 6.78125 0.375 12.525 0.375C18.2687 0.375 22.9417 5.04792 22.9417 10.7917ZM20.8583 10.7917C20.8583 6.19688 17.1198 2.45833 12.525 2.45833C7.93021 2.45833 4.19167 6.19688 4.19167 10.7917V21.7323C4.83352 21.3917 5.5484 21.2119 6.275 21.2083C7.44896 21.2083 8.58958 21.7 9.4 22.4844C10.2104 21.7 11.351 21.2083 12.525 21.2083C13.699 21.2083 14.8396 21.7 15.65 22.4844C16.4901 21.6749 17.6084 21.2182 18.775 21.2083C19.5073 21.2083 20.225 21.399 20.8583 21.7323V10.7917Z" fill="#0075FF"/>
</g>
<defs>
<clipPath id="clip0_673_353">
<rect width="25" height="25" fill="white" transform="translate(0.0249023 0.375)"/>
</clipPath>
</defs>
</svg>
