<svg width="29" height="27" viewBox="0 0 29 27" fill="none" xmlns="http://www.w3.org/2000/svg">
<g clip-path="url(#clip0_18_104)">
<path d="M28.4819 6.74991V18.1135C28.4853 19.2959 28.2436 20.4672 27.7708 21.5596C27.298 22.652 26.6035 23.6438 25.7274 24.4777L23.435 26.6714C23.326 26.7762 23.1965 26.8594 23.0539 26.9162C22.9112 26.973 22.7583 27.0022 22.6038 27.0022C22.4493 27.0022 22.2963 26.973 22.1537 26.9162C22.0111 26.8594 21.8815 26.7762 21.7726 26.6714C21.6634 26.567 21.5767 26.443 21.5175 26.3066C21.4584 26.1701 21.4279 26.0238 21.4279 25.876C21.4279 25.7283 21.4584 25.582 21.5175 25.4455C21.5767 25.309 21.6634 25.1851 21.7726 25.0807L24.0651 22.8869C24.7221 22.2615 25.243 21.5176 25.5975 20.6982C25.9521 19.8789 26.1333 19.0004 26.1307 18.1135V6.74991C26.1307 6.13004 25.6028 5.62491 24.955 5.62491C24.3073 5.62491 23.7794 6.13004 23.7794 6.74991L23.7641 15.8253C23.7508 16.5891 23.4655 17.3257 22.9553 17.9133L19.9245 20.9328C19.8177 21.0396 19.6899 21.1251 19.5484 21.1845C19.407 21.2439 19.2547 21.276 19.1002 21.2789C18.9458 21.2819 18.7922 21.2556 18.6484 21.2016C18.5046 21.1476 18.3734 21.0669 18.2622 20.9643C18.1509 20.8619 18.0617 20.7395 17.9998 20.6042C17.9379 20.4688 17.9045 20.3232 17.9014 20.1754C17.8984 20.0277 17.9258 19.8809 17.982 19.7433C18.0383 19.6057 18.1223 19.4801 18.2293 19.3735L21.2071 16.4103C21.3597 16.2227 21.438 15.9896 21.4282 15.7522V15.7004C21.4191 15.4881 21.3471 15.2826 21.2206 15.1079C21.0941 14.9332 20.9183 14.7966 20.7137 14.7139C20.5091 14.6312 20.2842 14.6059 20.0652 14.641C19.8461 14.676 19.642 14.7699 19.4766 14.9118L15.7581 18.1867C16.3902 19.3212 16.7228 20.5865 16.7268 21.8722V25.876C16.7268 26.1744 16.603 26.4606 16.3825 26.6715C16.162 26.8825 15.863 27.001 15.5512 27.001C15.2394 27.001 14.9404 26.8825 14.7199 26.6715C14.4994 26.4606 14.3756 26.1744 14.3756 25.876V21.8722C14.3747 21.0941 14.2056 20.3246 13.8789 19.6121C13.5521 18.8996 13.0748 18.2595 12.477 17.7322L9.2628 14.9017C9.03089 14.7076 8.72834 14.6089 8.42084 14.627C8.11334 14.6451 7.82572 14.7786 7.62045 14.9984C7.43373 15.1999 7.32858 15.4588 7.32405 15.7281C7.31953 15.9974 7.41591 16.2594 7.59576 16.4665L10.6171 19.4714C10.7241 19.5779 10.8081 19.7036 10.8644 19.8412C10.9206 19.9788 10.948 20.1256 10.9449 20.2733C10.9419 20.421 10.9085 20.5667 10.8466 20.7021C10.7847 20.8374 10.6955 20.9598 10.5842 21.0622C10.4729 21.1645 10.3416 21.2449 10.1978 21.2988C10.054 21.3526 9.90058 21.3788 9.74621 21.3759C9.59185 21.3729 9.4396 21.341 9.29816 21.2817C9.15672 21.2225 9.02885 21.1372 8.92186 21.0307L5.84643 17.9695C5.33012 17.3832 5.03124 16.6498 4.99645 15.8838C4.99057 15.8388 4.96824 6.75104 4.96824 6.75104C4.96824 6.13116 4.44038 5.62604 3.79261 5.62604C3.14484 5.62604 2.61699 6.13116 2.61699 6.75104V18.1147C2.61699 19.918 3.35058 21.6123 4.68256 22.888L6.97503 25.0818C7.08418 25.1862 7.17076 25.3102 7.22983 25.4467C7.28891 25.5832 7.31931 25.7295 7.31931 25.8772C7.31931 26.0249 7.28891 26.1711 7.22983 26.3076C7.17076 26.4441 7.08418 26.5681 6.97503 26.6725C6.86588 26.777 6.7363 26.8598 6.59369 26.9164C6.45107 26.9729 6.29822 27.002 6.14386 27.002C5.9895 27.002 5.83665 26.9729 5.69404 26.9164C5.55143 26.8598 5.42185 26.777 5.3127 26.6725L3.02023 24.4788C2.14418 23.645 1.44966 22.6531 0.97685 21.5607C0.504042 20.4683 0.262341 19.297 0.265737 18.1147V6.74991C0.265737 4.88916 1.84813 3.37491 3.79261 3.37491C5.7371 3.37491 7.31949 4.88916 7.31949 6.74991V12.5842C7.91361 12.3801 8.55418 12.3329 9.17394 12.4475C9.7937 12.5621 10.3698 12.8343 10.8417 13.2355L14.0676 16.0762C14.1699 16.1662 14.2604 16.2652 14.358 16.3597L17.8942 13.2457C18.3665 12.8416 18.944 12.5671 19.5658 12.4508C20.1875 12.3346 20.8305 12.3811 21.427 12.5853V6.75104C21.427 4.89029 23.0094 3.37604 24.9539 3.37604C26.8983 3.37604 28.4807 4.89029 28.4807 6.75104L28.4819 6.74991ZM8.49629 3.59991C8.49629 1.61429 10.0787 -8.95677e-05 12.0232 -8.95677e-05C12.9425 -8.95677e-05 13.7596 0.303661 14.3744 0.817786C15.0279 0.280199 15.864 -0.0106273 16.7257 -8.95677e-05C18.6701 -8.95677e-05 20.2525 1.61541 20.2525 3.59991C20.2525 5.85441 17.8519 8.17191 15.8392 9.71766C15.4148 10.0439 14.8952 10.207 14.3744 10.207C13.8536 10.207 13.334 10.0439 12.9084 9.71654C10.8957 8.17079 8.49629 5.85329 8.49629 3.59879V3.59991ZM10.8475 3.59991C10.8475 4.61691 12.2019 6.28979 14.3815 7.96379C16.547 6.28979 17.9013 4.61691 17.9013 3.59991C17.9013 2.85516 17.3734 2.24991 16.7257 2.24991C16.1837 2.24991 15.55 2.54466 15.55 3.37491C15.55 3.67328 15.4262 3.95943 15.2057 4.17041C14.9852 4.38138 14.6862 4.49991 14.3744 4.49991C14.0626 4.49991 13.7636 4.38138 13.5431 4.17041C13.3226 3.95943 13.1988 3.67328 13.1988 3.37491C13.1988 2.54466 12.5651 2.24991 12.0232 2.24991C11.3754 2.24991 10.8475 2.85629 10.8475 3.59991Z" fill="#FF00B8"/>
</g>
<defs>
<clipPath id="clip0_18_104">
<rect x="0.267471" width="28.215" height="27" rx="5" fill="white"/>
</clipPath>
</defs>
</svg>
