<svg width="26" height="25" viewBox="0 0 26 25" fill="none" xmlns="http://www.w3.org/2000/svg">
<g clip-path="url(#clip0_18_90)">
<path d="M24.676 10.0282C24.4304 9.76874 24.1224 9.57639 23.7815 9.46937C23.4406 9.36236 23.078 9.34424 22.7281 9.41673C22.5052 9.46152 22.2875 9.52089 22.0729 9.57923C21.2697 8.24153 20.1977 7.08501 18.9247 6.18278C17.6517 5.28056 16.2053 4.65224 14.6771 4.33756C15.0164 3.96424 15.24 3.5004 15.3207 3.0024C15.4013 2.5044 15.3356 1.9937 15.1315 1.53235C14.9274 1.071 14.5937 0.678863 14.1709 0.403604C13.7481 0.128345 13.2545 -0.0181885 12.75 -0.0181885C12.2455 -0.0181885 11.7519 0.128345 11.3291 0.403604C10.9063 0.678863 10.5726 1.071 10.3685 1.53235C10.1644 1.9937 10.0987 2.5044 10.1793 3.0024C10.26 3.5004 10.4836 3.96424 10.8229 4.33756C9.2945 4.65286 7.84813 5.28188 6.57528 6.18483C5.30243 7.08779 4.23079 8.24503 3.42813 9.58339C3.212 9.52042 2.99342 9.46621 2.77292 9.42089C2.42303 9.3483 2.0604 9.36637 1.71947 9.4734C1.37854 9.58041 1.07063 9.77283 0.825001 10.0324C0.579789 10.2892 0.404655 10.6048 0.316377 10.9488C0.228098 11.2928 0.229633 11.6537 0.320834 11.9969L3.34167 22.9271C3.08488 22.9568 2.84828 23.0808 2.67785 23.2751C2.50741 23.4695 2.41533 23.7202 2.41948 23.9787C2.42364 24.2372 2.52374 24.4848 2.70033 24.6736C2.87693 24.8624 3.11739 24.9787 3.375 25.0001H22.125C22.3871 24.9841 22.6335 24.8697 22.8148 24.6798C22.9962 24.4899 23.0991 24.2385 23.1031 23.976C23.107 23.7135 23.0117 23.4591 22.8361 23.2639C22.6606 23.0686 22.4177 22.9469 22.1562 22.923L25.1844 11.9699C25.2716 11.6297 25.2707 11.2729 25.1817 10.9332C25.0928 10.5934 24.9188 10.282 24.676 10.0282ZM12.75 6.25006C14.231 6.27385 15.6824 6.66809 16.9719 7.39681C18.2614 8.12552 19.3479 9.16553 20.1323 10.4219C19.3201 10.9053 18.612 11.5451 18.049 12.3042C17.4865 11.4083 16.7057 10.6698 15.78 10.1579C14.8542 9.64603 13.8136 9.37751 12.7557 9.37751C11.6979 9.37751 10.6573 9.64603 9.7315 10.1579C8.80571 10.6698 8.025 11.4083 7.4625 12.3042C6.89976 11.5448 6.19157 10.905 5.37917 10.4219C6.16251 9.16714 7.2472 8.12815 8.53454 7.39952C9.82188 6.67089 11.271 6.27575 12.75 6.25006ZM19.9979 22.9167H5.50521L2.36042 11.4584C4.41667 11.8751 6.5 13.4376 6.5 15.6251C6.5 15.9013 6.60975 16.1663 6.8051 16.3616C7.00045 16.557 7.2654 16.6667 7.54167 16.6667C7.81793 16.6667 8.08289 16.557 8.27824 16.3616C8.47359 16.1663 8.58333 15.9013 8.58333 15.6251C8.58333 14.52 9.02232 13.4602 9.80372 12.6788C10.5851 11.8974 11.6449 11.4584 12.75 11.4584C13.8551 11.4584 14.9149 11.8974 15.6963 12.6788C16.4777 13.4602 16.9167 14.52 16.9167 15.6251C16.9167 15.9013 17.0264 16.1663 17.2218 16.3616C17.4171 16.557 17.6821 16.6667 17.9583 16.6667C18.2346 16.6667 18.4996 16.557 18.6949 16.3616C18.8903 16.1663 19 15.9013 19 15.6251C19 13.4376 21.0833 11.8751 23.1667 11.4365L19.9979 22.9167Z" fill="#C4B000"/>
</g>
<defs>
<clipPath id="clip0_18_90">
<rect width="25" height="25" fill="white" transform="translate(0.25)"/>
</clipPath>
</defs>
</svg>
