<svg width="23" height="23" viewBox="0 0 23 23" fill="none" xmlns="http://www.w3.org/2000/svg">
<path d="M22.0106 3.83127C21.7463 3.51405 21.4154 3.25892 21.0413 3.08401C20.6673 2.90909 20.2594 2.81868 19.8464 2.81918H4.65295L4.61348 2.48934C4.53271 1.80373 4.20318 1.17159 3.68737 0.712762C3.17156 0.253936 2.50532 0.000321192 1.81497 0L1.60635 0C1.35712 0 1.1181 0.0990066 0.941865 0.27524C0.765633 0.451472 0.666626 0.690496 0.666626 0.939727C0.666626 1.18896 0.765633 1.42798 0.941865 1.60421C1.1181 1.78045 1.35712 1.87945 1.60635 1.87945H1.81497C2.04514 1.87948 2.2673 1.96399 2.4393 2.11694C2.6113 2.26989 2.72119 2.48064 2.74812 2.70923L4.04118 13.704C4.17543 14.8475 4.72481 15.9018 5.58507 16.667C6.44532 17.4322 7.55656 17.8548 8.70786 17.8548H18.5214C18.7707 17.8548 19.0097 17.7558 19.1859 17.5796C19.3621 17.4033 19.4612 17.1643 19.4612 16.9151C19.4612 16.6658 19.3621 16.4268 19.1859 16.2506C19.0097 16.0744 18.7707 15.9754 18.5214 15.9754H8.70786C8.12623 15.9737 7.55933 15.7922 7.0849 15.4557C6.61046 15.1193 6.25171 14.6443 6.05784 14.0959H17.2594C18.361 14.096 19.4276 13.7089 20.2729 13.0025C21.1182 12.296 21.6883 11.315 21.8838 10.2308L22.6215 6.13923C22.6951 5.73328 22.6785 5.3161 22.573 4.91725C22.4674 4.5184 22.2754 4.14765 22.0106 3.83127ZM20.7768 5.80563L20.0381 9.8972C19.9208 10.5484 19.5781 11.1376 19.0701 11.5616C18.5621 11.9857 17.9211 12.2174 17.2594 12.2164H5.759L4.87472 4.69863H19.8464C19.9845 4.69781 20.121 4.72741 20.2463 4.78533C20.3716 4.84325 20.4826 4.92806 20.5715 5.03375C20.6603 5.13943 20.7247 5.26338 20.7602 5.39679C20.7957 5.5302 20.8013 5.66979 20.7768 5.80563Z" fill="black"/>
<path d="M7.24475 22.5533C8.28274 22.5533 9.1242 21.7119 9.1242 20.6739C9.1242 19.6359 8.28274 18.7944 7.24475 18.7944C6.20676 18.7944 5.3653 19.6359 5.3653 20.6739C5.3653 21.7119 6.20676 22.5533 7.24475 22.5533Z" fill="black"/>
<path d="M16.6419 22.5533C17.6799 22.5533 18.5214 21.7119 18.5214 20.6739C18.5214 19.6359 17.6799 18.7944 16.6419 18.7944C15.6039 18.7944 14.7625 19.6359 14.7625 20.6739C14.7625 21.7119 15.6039 22.5533 16.6419 22.5533Z" fill="black"/>
</svg>

