<svg width="22" height="23" viewBox="0 0 22 23" fill="none" xmlns="http://www.w3.org/2000/svg">
<path d="M18.5778 11.8083V9.6582C18.5778 6.52167 16.3088 3.86324 13.2 2.99494V2.02148C13.2 0.906838 12.2131 0 11 0C9.78696 0 8.80004 0.906838 8.80004 2.02148V2.99494C5.69121 3.86324 3.42229 6.52162 3.42229 9.6582V11.8083C3.42229 14.5634 2.27937 17.1759 0.204101 19.1645C0.104596 19.2598 0.0377731 19.3799 0.0119398 19.5098C-0.0138935 19.6397 0.00240186 19.7738 0.0588001 19.8953C0.115198 20.0168 0.209212 20.1203 0.329154 20.1931C0.449096 20.2659 0.589676 20.3047 0.733418 20.3047H7.40716C7.74781 21.8407 9.22933 23 11 23C12.7708 23 14.2522 21.8407 14.5929 20.3047H21.2666C21.4104 20.3047 21.5509 20.2659 21.6709 20.1931C21.7908 20.1203 21.8848 20.0167 21.9412 19.8952C21.9976 19.7738 22.0139 19.6397 21.9881 19.5098C21.9622 19.3799 21.8954 19.2598 21.796 19.1645C19.7207 17.1759 18.5778 14.5634 18.5778 11.8083ZM10.2667 2.02148C10.2667 1.64994 10.5957 1.34766 11 1.34766C11.4044 1.34766 11.7334 1.64994 11.7334 2.02148V2.72802C11.492 2.70663 11.2474 2.69531 11 2.69531C10.7527 2.69531 10.5081 2.70663 10.2667 2.72802V2.02148ZM11 21.6523C10.044 21.6523 9.22889 21.089 8.92618 20.3047H13.0739C12.7712 21.089 11.956 21.6523 11 21.6523ZM2.31399 18.957C3.98407 16.9 4.88895 14.4106 4.88895 11.8083V9.6582C4.88895 6.56196 7.63038 4.04297 11 4.04297C14.3697 4.04297 17.1111 6.56196 17.1111 9.6582V11.8083C17.1111 14.4106 18.016 16.9 19.6861 18.957H2.31399ZM20.5333 9.6582C20.5333 10.0303 20.8617 10.332 21.2666 10.332C21.6716 10.332 22 10.0303 22 9.6582C22 6.9584 20.8558 4.42018 18.7782 2.51113C18.4918 2.24803 18.0275 2.24798 17.7411 2.51113C17.4547 2.77429 17.4547 3.20091 17.7411 3.46406C19.5417 5.11858 20.5333 7.31836 20.5333 9.6582ZM0.733418 10.332C1.13841 10.332 1.46675 10.0303 1.46675 9.6582C1.46675 7.3184 2.4584 5.11862 4.25897 3.46411C4.54536 3.20095 4.54536 2.77433 4.25897 2.51118C3.97263 2.24803 3.50829 2.24803 3.2219 2.51118C1.14428 4.42022 8.83897e-05 6.9584 8.83897e-05 9.6582C8.83897e-05 10.0303 0.328424 10.332 0.733418 10.332Z" fill="black"/>
</svg>
